<svg width="24" height="24" viewBox="0 0 24 24" fill="none" xmlns="http://www.w3.org/2000/svg"><mask id="mask0_2121_5265" style="mask-type:luminance" maskUnits="userSpaceOnUse" x="1" y="1" width="22" height="22"><path d="M22.9281 22.9278V1.07186H1.07217V22.9278H22.9281Z" fill="white" stroke="white" stroke-width="0.042771"></path></mask><g mask="url(#mask0_2121_5265)"><path d="M3.61523 19.5285C3.61523 18.1112 4.76419 16.9622 6.18149 16.9622H17.7724C19.1897 16.9622 20.3387 15.8133 20.3387 14.396V4.47308C20.3387 3.05578 19.1897 1.90682 17.7724 1.90682H6.18149C4.76419 1.90682 3.61523 3.05578 3.61523 4.47308V19.5285ZM3.61523 19.5285C3.61523 20.9458 4.76419 22.0947 6.18149 22.0947H17.7724C19.1897 22.0947 20.3387 20.9458 20.3387 19.5285" stroke="#635BFF" stroke-width="1.71084" stroke-miterlimit="10" stroke-linecap="round" stroke-linejoin="round"></path><path d="M8.79102 6.17871H15.2067" stroke="#635BFF" stroke-width="1.5" stroke-miterlimit="10" stroke-linecap="round" stroke-linejoin="round"></path><path d="M8.79297 9.69336H15.2086" stroke="#635BFF" stroke-width="1.5" stroke-miterlimit="10" stroke-linecap="round" stroke-linejoin="round"></path><path d="M8.79297 12.9209H15.2086" stroke="#635BFF" stroke-width="1.5" stroke-miterlimit="10" stroke-linecap="round" stroke-linejoin="round"></path></g></svg>